<svg id="Magnifying_" data-name="Magnifying " xmlns="http://www.w3.org/2000/svg" width="24" height="22" viewBox="0 0 24 22">
  <path id="Fill_1" data-name="Fill 1" d="M18.607,20.448a1.2,1.2,0,0,1-.9-.379l-5.052-4.9a9.624,9.624,0,0,1-1.979.8,8.3,8.3,0,0,1-5.443-.379,9.2,9.2,0,0,1-2.708-1.795A8.41,8.41,0,0,1,.677,11.159,7.83,7.83,0,0,1,.638,4.878,7.82,7.82,0,0,1,2.4,2.338,8.533,8.533,0,0,1,5.026.632,8.254,8.254,0,0,1,8.229,0a8.1,8.1,0,0,1,3.255.67,9.2,9.2,0,0,1,2.708,1.795,8.592,8.592,0,0,1,1.862,2.628,7.5,7.5,0,0,1,.69,3.147,7.778,7.778,0,0,1-.313,2.2,7.869,7.869,0,0,1-.885,1.972l5.026,4.878a1.4,1.4,0,0,1,.469.784.845.845,0,0,1-.286.784l-1.25,1.213A1.2,1.2,0,0,1,18.607,20.448Zm-10.378-18a5.63,5.63,0,0,0-2.214.442A6.051,6.051,0,0,0,4.193,4.082,5.415,5.415,0,0,0,2.969,5.839a5.322,5.322,0,0,0-.443,2.149A5.148,5.148,0,0,0,3.021,10.2a6.316,6.316,0,0,0,1.315,1.845,6.516,6.516,0,0,0,1.9,1.277,5.517,5.517,0,0,0,2.253.48,5.634,5.634,0,0,0,2.213-.442,6.051,6.051,0,0,0,1.823-1.188,5.385,5.385,0,0,0,1.667-3.93,5.2,5.2,0,0,0-.482-2.186,6.114,6.114,0,0,0-1.3-1.845,6.516,6.516,0,0,0-1.9-1.277A5.578,5.578,0,0,0,8.229,2.452Z" transform="translate(0 0)" fill="#56135a"/>
</svg>
